<?xml version="1.0" encoding="UTF-8" standalone="no"?>
<!-- Created with Inkscape (http://www.inkscape.org/) -->

<svg
   xmlns:dc="http://purl.org/dc/elements/1.1/"
   xmlns:cc="http://creativecommons.org/ns#"
   xmlns:rdf="http://www.w3.org/1999/02/22-rdf-syntax-ns#"
   xmlns:svg="http://www.w3.org/2000/svg"
   xmlns="http://www.w3.org/2000/svg"
   xmlns:sodipodi="http://sodipodi.sourceforge.net/DTD/sodipodi-0.dtd"
   xmlns:inkscape="http://www.inkscape.org/namespaces/inkscape"
   width="210mm"
   height="297mm"
   viewBox="0 0 744.09448819 1052.3622047"
   id="svg2"
   version="1.1"
   inkscape:version="0.91 r13725"
   sodipodi:docname="MenuIcon.svg"
   inkscape:export-filename="D:\iori\Documents\GitHub\masterqtquick2\resources\MenuIcon.png"
   inkscape:export-xdpi="30.85"
   inkscape:export-ydpi="30.85">
  <defs
     id="defs4" />
  <sodipodi:namedview
     id="base"
     pagecolor="#ffffff"
     bordercolor="#666666"
     borderopacity="1.0"
     inkscape:pageopacity="0.0"
     inkscape:pageshadow="2"
     inkscape:zoom="0.98994949"
     inkscape:cx="366.91073"
     inkscape:cy="698.86241"
     inkscape:document-units="px"
     inkscape:current-layer="layer6"
     showgrid="true"
     inkscape:window-width="1920"
     inkscape:window-height="1147"
     inkscape:window-x="-8"
     inkscape:window-y="-8"
     inkscape:window-maximized="1">
    <inkscape:grid
       type="xygrid"
       id="grid3336" />
  </sodipodi:namedview>
  <metadata
     id="metadata7">
    <rdf:RDF>
      <cc:Work
         rdf:about="">
        <dc:format>image/svg+xml</dc:format>
        <dc:type
           rdf:resource="http://purl.org/dc/dcmitype/StillImage" />
        <dc:title />
      </cc:Work>
    </rdf:RDF>
  </metadata>
  <g
     inkscape:groupmode="layer"
     id="layer4"
     inkscape:label="枠"
     style="display:none"
     sodipodi:insensitive="true">
    <rect
       style="fill:#767773;fill-opacity:0;stroke:none;stroke-width:5.30000019;stroke-linecap:butt;stroke-linejoin:round;stroke-miterlimit:4;stroke-dasharray:none;stroke-opacity:1"
       id="rect4437-0"
       width="236.46701"
       height="236.46701"
       x="57.238411"
       y="147.49913" />
  </g>
  <g
     inkscape:groupmode="layer"
     id="layer5"
     inkscape:label="マカロン"
     style="display:inline">
    <ellipse
       style="fill:#f6c7cf;fill-opacity:1;stroke:none;stroke-width:10.09126568;stroke-linecap:butt;stroke-linejoin:round;stroke-miterlimit:4;stroke-dasharray:none;stroke-opacity:1"
       id="path4779-1-1-3"
       cx="401.54117"
       cy="244.52019"
       rx="83.876328"
       ry="34.59597"
       transform="matrix(0.91481344,0.40387668,-0.10173119,0.99481192,0,0)" />
    <ellipse
       style="fill:#ffffff;fill-opacity:1;stroke:#eda2a6;stroke-width:9.00082302;stroke-linecap:butt;stroke-linejoin:round;stroke-miterlimit:4;stroke-dasharray:none;stroke-opacity:1"
       id="path4779-1-1"
       cx="457.45825"
       cy="187.32956"
       rx="81.568115"
       ry="29.30821"
       transform="matrix(0.88728739,0.46121697,-0.30278331,0.95305942,0,0)" />
    <ellipse
       style="fill:#f6c7cf;fill-opacity:1;stroke:#eda2a6;stroke-width:9.41611958;stroke-linecap:butt;stroke-linejoin:round;stroke-miterlimit:4;stroke-dasharray:none;stroke-opacity:1"
       id="path4779-1-1-7"
       cx="457.94223"
       cy="165.94707"
       rx="84.961334"
       ry="30.794134"
       transform="matrix(0.8849032,0.46577497,-0.29935435,0.95414201,0,0)"
       inkscape:transform-center-x="-62.466284"
       inkscape:transform-center-y="-40.41494" />
    <ellipse
       style="fill:#f6c7cf;fill-opacity:1;stroke:none;stroke-width:10;stroke-linecap:butt;stroke-linejoin:round;stroke-miterlimit:4;stroke-dasharray:none;stroke-opacity:1"
       id="path4779-1-9"
       cx="445.38116"
       cy="166.83914"
       rx="90.725555"
       ry="44.99987"
       transform="matrix(0.89939176,0.43714352,-0.22149662,0.97516114,0,0)" />
  </g>
  <g
     inkscape:groupmode="layer"
     id="layer6"
     inkscape:label="うさぎ">
    <path
       style="fill:#faf500;fill-opacity:1;fill-rule:evenodd;stroke:#ab6600;stroke-width:8.90159988;stroke-linecap:butt;stroke-linejoin:miter;stroke-miterlimit:4;stroke-dasharray:none;stroke-opacity:1"
       d="m 272.36142,440.59132 c 0,0 -20.75001,34.06643 -32.27778,52.99222 -12.39199,20.34462 14.8004,49.80983 35.51718,61.9792 20.71679,12.16937 60.01409,21.76126 72.40608,1.41664 11.52778,-18.92579 32.27779,-52.99222 32.27779,-52.99222 0,0 20.75,-34.06643 32.27778,-52.99223 4.86054,-7.97981 1.51341,-19.6689 -14.26185,-28.752 -15.77526,-9.08308 -27.13044,-6.39746 -31.99098,1.58236 -11.52778,18.9258 -20.75001,34.06643 -32.27778,52.99222 -2.17371,3.56869 -8.68595,5.1767 -12.31992,3.04205 -3.63396,-2.13465 -5.27139,-8.52991 -3.09769,-12.09859 11.52778,-18.92579 20.75,-34.06644 32.27778,-52.99223 4.86054,-7.97981 1.51342,-19.66891 -13.98653,-28.59028 -15.49995,-8.92135 -27.40576,-6.55918 -32.2663,1.42064 -11.52778,18.9258 -32.27778,52.99222 -32.27778,52.99222 z"
       id="path4848"
       inkscape:connector-curvature="0"
       sodipodi:nodetypes="cszscszsszsszsc" />
    <ellipse
       style="fill:#ff4f43;fill-opacity:1;stroke:none;stroke-width:10;stroke-linecap:butt;stroke-linejoin:round;stroke-miterlimit:4;stroke-dasharray:none;stroke-opacity:1"
       id="path4850"
       cx="483.89542"
       cy="308.30014"
       rx="12.133414"
       ry="12.504696"
       transform="matrix(0.86224284,0.50649511,-0.52020148,0.85404357,0,0)" />
    <ellipse
       style="fill:#ff4f43;fill-opacity:1;stroke:none;stroke-width:10;stroke-linecap:butt;stroke-linejoin:round;stroke-miterlimit:4;stroke-dasharray:none;stroke-opacity:1"
       id="path4850-4"
       cx="561.48541"
       cy="308.30014"
       rx="12.133414"
       ry="12.504696"
       transform="matrix(0.86224284,0.50649511,-0.52020148,0.85404357,0,0)" />
    <ellipse
       style="fill:#000000;fill-opacity:1;stroke:none;stroke-width:10;stroke-linecap:butt;stroke-linejoin:round;stroke-miterlimit:4;stroke-dasharray:none;stroke-opacity:1"
       id="path4850-9"
       cx="504.17093"
       cy="277.27792"
       rx="8.1421595"
       ry="8.3913088"
       transform="matrix(0.86224284,0.50649511,-0.52020148,0.85404357,0,0)" />
    <ellipse
       style="fill:#000000;fill-opacity:1;stroke:none;stroke-width:10;stroke-linecap:butt;stroke-linejoin:round;stroke-miterlimit:4;stroke-dasharray:none;stroke-opacity:1"
       id="path4850-9-4"
       cx="542.16772"
       cy="277.27792"
       rx="8.1421595"
       ry="8.3913088"
       transform="matrix(0.86224284,0.50649511,-0.52020148,0.85404357,0,0)" />
  </g>
  <g
     inkscape:label="イチゴ"
     inkscape:groupmode="layer"
     id="layer1"
     style="display:inline">
    <path
       style="fill:#2ecb61;fill-opacity:1;fill-rule:evenodd;stroke:#005e00;stroke-width:10;stroke-linecap:butt;stroke-linejoin:round;stroke-miterlimit:4;stroke-dasharray:none;stroke-opacity:1"
       d="m 226.13188,357.17304 -31.05298,-29.33789 39.53963,22.05939 11.266,-19.24484 9.83871,33.54838 45.35653,8.23319 -26.19078,10.67909 39.53964,22.0594 -40.7478,-6.29424 -81.74905,-50.66648 z"
       id="path4169"
       inkscape:connector-curvature="0"
       sodipodi:nodetypes="ccccccccccc" />
    <path
       style="fill:#eb0923;fill-opacity:1;fill-rule:evenodd;stroke:#430000;stroke-width:10;stroke-linecap:butt;stroke-linejoin:miter;stroke-miterlimit:4;stroke-dasharray:none;stroke-opacity:1"
       d="m 257.51017,377.8004 c -11.09552,-6.50647 -32.5939,-17.59237 -46.47717,-19.10164 -13.88327,-1.50926 -20.76643,-5.12892 -33.03819,5.786 -12.27177,10.91491 -20.55518,43.29782 -18.60405,62.28072 1.95112,18.98291 7.80019,33.68831 23.51821,43.55335 15.71802,9.86503 42.42248,10.2639 61.78314,2.80049 19.36066,-7.4634 40.48146,-28.15675 44.48684,-44.11259 4.00539,-15.95584 -4.65961,-25.79913 -10.57681,-34.46928 -5.9172,-8.67014 -9.99644,-10.23058 -21.09197,-16.73705 z"
       id="path4167"
       inkscape:connector-curvature="0"
       sodipodi:nodetypes="zzzzzzzzz" />
    <path
       style="fill:none;fill-rule:evenodd;stroke:#005e00;stroke-width:10;stroke-linecap:round;stroke-linejoin:miter;stroke-miterlimit:4;stroke-dasharray:none;stroke-opacity:1"
       d="m 257.01259,361.99684 c 0,0 4.37376,-6.37983 7.65299,-8.15057 3.27923,-1.77074 11.01273,-1.92866 11.01273,-1.92866"
       id="path4173"
       inkscape:connector-curvature="0"
       sodipodi:nodetypes="czc" />
    <ellipse
       style="fill:#430000;fill-opacity:1;stroke:none;stroke-width:10;stroke-linecap:round;stroke-linejoin:round;stroke-miterlimit:4;stroke-dasharray:none;stroke-opacity:1"
       id="path4175"
       cx="431.41333"
       cy="71.858948"
       rx="5.5069442"
       ry="9.3209095"
       transform="matrix(0.60271258,0.79795836,-0.79795836,0.60271258,0,0)" />
    <ellipse
       style="display:inline;fill:#430000;fill-opacity:1;stroke:none;stroke-width:10;stroke-linecap:round;stroke-linejoin:round;stroke-miterlimit:4;stroke-dasharray:none;stroke-opacity:1"
       id="path4175-1"
       cx="473.49106"
       cy="49.03738"
       rx="5.5069442"
       ry="9.3209095"
       transform="matrix(0.60271258,0.79795836,-0.79795836,0.60271258,0,0)" />
    <ellipse
       style="display:inline;fill:#430000;fill-opacity:1;stroke:none;stroke-width:10;stroke-linecap:round;stroke-linejoin:round;stroke-miterlimit:4;stroke-dasharray:none;stroke-opacity:1"
       id="path4175-7"
       cx="443.78897"
       cy="108.50831"
       rx="5.5069442"
       ry="9.3209095"
       transform="matrix(0.60271258,0.79795836,-0.79795836,0.60271258,0,0)" />
    <ellipse
       style="display:inline;fill:#430000;fill-opacity:1;stroke:none;stroke-width:10;stroke-linecap:round;stroke-linejoin:round;stroke-miterlimit:4;stroke-dasharray:none;stroke-opacity:1"
       id="path4175-4"
       cx="494.90894"
       cy="104.8247"
       rx="5.5069442"
       ry="9.3209095"
       transform="matrix(0.60271258,0.79795836,-0.79795836,0.60271258,0,0)" />
    <ellipse
       style="display:inline;fill:#430000;fill-opacity:1;stroke:none;stroke-width:10;stroke-linecap:round;stroke-linejoin:round;stroke-miterlimit:4;stroke-dasharray:none;stroke-opacity:1"
       id="path4175-6"
       cx="470.0864"
       cy="84.061737"
       rx="5.5069442"
       ry="9.3209095"
       transform="matrix(0.60271258,0.79795836,-0.79795836,0.60271258,0,0)" />
    <ellipse
       style="display:inline;fill:#430000;fill-opacity:1;stroke:none;stroke-width:10;stroke-linecap:round;stroke-linejoin:round;stroke-miterlimit:4;stroke-dasharray:none;stroke-opacity:1"
       id="path4175-19"
       cx="502.35944"
       cy="66.814064"
       rx="5.5069442"
       ry="9.3209095"
       transform="matrix(0.60271258,0.79795836,-0.79795836,0.60271258,0,0)" />
  </g>
  <g
     inkscape:groupmode="layer"
     id="layer2"
     inkscape:label="眼鏡(ぼつ)"
     sodipodi:insensitive="true"
     style="display:none">
    <path
       style="fill:none;fill-rule:evenodd;stroke:#a00000;stroke-width:5.30000019;stroke-linecap:round;stroke-linejoin:miter;stroke-miterlimit:4;stroke-dasharray:none;stroke-opacity:1"
       d="m 433,439.50506 c 0,0 30.65463,-53.1683 40,-65 9.34537,-11.8317 5.5127,-8.1413 10,-10 4.4873,-1.8587 15,0 15,0"
       id="path4304"
       inkscape:connector-curvature="0"
       sodipodi:nodetypes="czzc" />
    <path
       style="fill:none;fill-rule:evenodd;stroke:#a00000;stroke-width:5.30000019;stroke-linecap:round;stroke-linejoin:miter;stroke-miterlimit:4;stroke-dasharray:none;stroke-opacity:1"
       d="m 226.07143,439.50506 c 0,0 30.65464,-53.1683 40.00001,-65 9.34537,-11.8317 5.5127,-8.1413 10,-10 4.4873,-1.8587 15,0 15,0"
       id="path4304-0"
       inkscape:connector-curvature="0"
       sodipodi:nodetypes="czzc" />
    <path
       style="fill:#cff3f5;fill-opacity:1;fill-rule:evenodd;stroke:#a00000;stroke-width:5.30000019;stroke-linecap:butt;stroke-linejoin:miter;stroke-miterlimit:4;stroke-dasharray:none;stroke-opacity:1"
       d="m 225.20178,433.37235 c 0,0 0.79822,29.98985 4.79822,33.98985 4,4 81,4 85,0 4,-4 5.3033,-34.49492 5.3033,-34.49492"
       id="path4253"
       inkscape:connector-curvature="0"
       sodipodi:nodetypes="czzc" />
    <path
       style="fill:none;fill-rule:evenodd;stroke:#a00000;stroke-width:5.30000019;stroke-linecap:butt;stroke-linejoin:miter;stroke-miterlimit:4;stroke-dasharray:none;stroke-opacity:1"
       d="m 319.98219,442.39224 c 0,0 5.25465,-5.06008 8.37631,-5.06008 3.12167,0 8.37631,5.06008 8.37631,5.06008 l 0,0"
       id="path4287"
       inkscape:connector-curvature="0"
       sodipodi:nodetypes="czcc" />
    <path
       style="fill:#cff3f5;fill-opacity:1;fill-rule:evenodd;stroke:#a00000;stroke-width:5.30000019;stroke-linecap:butt;stroke-linejoin:miter;stroke-miterlimit:4;stroke-dasharray:none;stroke-opacity:1"
       d="m 337.48749,433.37235 c 0,0 0.79822,29.98985 4.79822,33.98985 4,4 81,4 85,0 4,-4 5.3033,-34.49492 5.3033,-34.49492"
       id="path4253-6"
       inkscape:connector-curvature="0"
       sodipodi:nodetypes="czzc" />
  </g>
  <g
     inkscape:label="眼鏡2(ぼつ)"
     id="g4348"
     inkscape:groupmode="layer"
     style="display:none"
     sodipodi:insensitive="true">
    <path
       sodipodi:nodetypes="czzc"
       inkscape:connector-curvature="0"
       id="path4360"
       d="m 239.331,550.89084 c 0,0 23.32501,-57.68303 30.43586,-70.51941 7.11086,-12.83637 4.1946,-8.8326 7.60897,-10.84913 3.41436,-2.01654 11.41345,0 11.41345,0"
       style="fill:none;fill-rule:evenodd;stroke:#a00000;stroke-width:10;stroke-linecap:round;stroke-linejoin:miter;stroke-miterlimit:4;stroke-dasharray:none;stroke-opacity:1" />
    <path
       sodipodi:nodetypes="czzc"
       inkscape:connector-curvature="0"
       id="path4362"
       d="m 81.879801,550.89084 c 0,0 23.324999,-57.68303 30.435869,-70.51941 7.11085,-12.83637 4.19459,-8.8326 7.60897,-10.84913 3.41436,-2.01654 11.41343,0 11.41343,0"
       style="fill:none;fill-rule:evenodd;stroke:#a00000;stroke-width:10;stroke-linecap:round;stroke-linejoin:miter;stroke-miterlimit:4;stroke-dasharray:none;stroke-opacity:1" />
    <path
       sodipodi:nodetypes="czzc"
       inkscape:connector-curvature="0"
       id="path4364"
       d="m 81.218091,544.23737 c 0,0 0.60736,32.53639 3.65094,36.87605 3.04359,4.33965 61.632609,4.33965 64.676199,0 3.04358,-4.33966 4.03527,-37.424 4.03527,-37.424"
       style="fill:#cff3f5;fill-opacity:1;fill-rule:evenodd;stroke:#a00000;stroke-width:10;stroke-linecap:butt;stroke-linejoin:miter;stroke-miterlimit:4;stroke-dasharray:none;stroke-opacity:1" />
    <path
       sodipodi:nodetypes="czcc"
       inkscape:connector-curvature="0"
       id="path4366"
       d="m 153.33615,554.02317 c 0,0 3.99826,-5.48975 6.37352,-5.48975 2.37527,0 6.37349,5.48975 6.37349,5.48975 l 0,0"
       style="fill:none;fill-rule:evenodd;stroke:#a00000;stroke-width:10;stroke-linecap:butt;stroke-linejoin:miter;stroke-miterlimit:4;stroke-dasharray:none;stroke-opacity:1" />
    <path
       sodipodi:nodetypes="czzc"
       inkscape:connector-curvature="0"
       id="path4368"
       d="m 166.65588,544.23737 c 0,0 0.60736,32.53639 3.65094,36.87605 3.04359,4.33965 61.63262,4.33965 64.67621,0 3.04357,-4.33966 4.03526,-37.424 4.03526,-37.424"
       style="fill:#cff3f5;fill-opacity:1;fill-rule:evenodd;stroke:#a00000;stroke-width:10;stroke-linecap:butt;stroke-linejoin:miter;stroke-miterlimit:4;stroke-dasharray:none;stroke-opacity:1" />
  </g>
  <g
     inkscape:groupmode="layer"
     id="layer3"
     inkscape:label="スカート(ぼつ)"
     style="display:none"
     sodipodi:insensitive="true">
    <path
       style="fill:#bbbbbc;fill-opacity:1;fill-rule:evenodd;stroke:#000000;stroke-width:10;stroke-linecap:butt;stroke-linejoin:miter;stroke-miterlimit:4;stroke-dasharray:none;stroke-opacity:1"
       d="m 576.9014,605.65223 1.75791,-9.84426 47.46346,18.63383 -1.75791,9.84427"
       id="path4372"
       inkscape:connector-curvature="0" />
    <path
       style="fill:#bbbdbb;fill-opacity:1;fill-rule:evenodd;stroke:#000000;stroke-width:10;stroke-linecap:butt;stroke-linejoin:miter;stroke-miterlimit:4;stroke-dasharray:none;stroke-opacity:1"
       d="m 576.9014,605.65223 c 0,0 -8.20412,2.96625 -14.02559,9.46757 -5.82147,6.50132 -7.68053,13.34889 -12.69461,26.39371 -5.01408,13.04482 -11.02283,31.64753 -28.47811,45.70555 -17.45528,14.05801 -75.94157,27.07171 -75.94157,27.07171 l 29.3884,35.54112 -0.47086,-12.60042 30.66916,36.4954 -1.75161,-13.55471 31.66113,37.03535 -2.74359,-14.09465 25.53357,28.68528 c 0,0 13.16538,-11.65695 19.84553,-22.75859 6.68015,-11.10165 14.30183,-13.04618 27.48615,-56.40368 13.18432,-43.3575 10.19589,-38.81205 14.41487,-58.37504 4.21899,-19.56298 4.57059,-49.97476 4.57059,-49.97476 L 576.9014,605.65223"
       id="path4370"
       inkscape:connector-curvature="0"
       sodipodi:nodetypes="czzzcccccccczzzcc" />
    <path
       style="fill:none;fill-rule:evenodd;stroke:#000000;stroke-width:10;stroke-linecap:butt;stroke-linejoin:miter;stroke-miterlimit:4;stroke-dasharray:none;stroke-opacity:1"
       d="m 472.57208,733.59008 c 0,0 27.43286,2.02566 41.63727,-5.62527 14.20442,-7.65094 26.81806,-28.01925 35.13305,-42.34041 8.31499,-14.32116 12.92063,-35.78595 12.92063,-35.78595"
       id="path4374"
       inkscape:connector-curvature="0"
       sodipodi:nodetypes="czzc" />
    <path
       style="fill:none;fill-rule:evenodd;stroke:#000000;stroke-width:10;stroke-linecap:butt;stroke-linejoin:miter;stroke-miterlimit:4;stroke-dasharray:none;stroke-opacity:1"
       d="m 500.44494,755.47353 c 0,0 29.19076,-7.81862 43.39518,-15.46955 14.20442,-7.65093 22.22497,-22.8779 29.75887,-44.75126 7.5339,-21.87337 11.04972,-41.56192 11.04972,-41.56192"
       id="path4374-6"
       inkscape:connector-curvature="0"
       sodipodi:nodetypes="czzc" />
    <path
       style="fill:none;fill-rule:evenodd;stroke:#000000;stroke-width:10;stroke-linecap:butt;stroke-linejoin:miter;stroke-miterlimit:4;stroke-dasharray:none;stroke-opacity:1"
       d="m 529.75174,778.26606 c 0,0 19.55044,0.22604 33.8146,-14.64082 14.26415,-14.86686 22.27519,-37.38061 26.65742,-55.82607 4.38224,-18.44546 12.31794,-64.91697 12.31794,-64.91697"
       id="path4374-6-9"
       inkscape:connector-curvature="0"
       sodipodi:nodetypes="czzc" />
  </g>
</svg>
